<svg width="14" height="16" viewBox="0 0 14 16" fill="none" xmlns="http://www.w3.org/2000/svg">
<path d="M1.17043 2.6822C1.26571 2.65928 1.35804 2.64736 1.45518 2.63779C1.4561 2.72452 1.47127 2.83427 1.42839 2.9116C1.34844 2.94922 1.28281 2.93175 1.19739 2.91706C1.19275 2.91177 1.18686 2.9074 1.1834 2.90127C1.14676 2.83595 1.1631 2.75257 1.17043 2.6822Z" fill="#D72B70"/>
<path d="M3.9187 2.6544C4.02814 2.65289 4.13614 2.65642 4.24532 2.66171C4.26436 2.74887 4.27438 2.82931 4.27649 2.91848C4.15922 2.93855 4.0385 2.94132 3.91971 2.94862L3.9187 2.6544Z" fill="#D72B70"/>
<path d="M8.25784 0.00056246L8.28379 0C8.29314 0.009589 8.30696 0.0163399 8.31201 0.0287502C8.33088 0.0746632 8.33181 1.1446 8.3324 1.2797C8.19997 1.27718 8.06517 1.28751 7.93274 1.29247C7.91589 1.29213 7.89129 1.28231 7.87478 1.27769C7.78935 1.06089 7.83207 0.281003 7.84176 0.0116964L8.25784 0.00056246Z" fill="#D72B70"/>
<path d="M10.284 0.495453C10.4342 0.574494 10.5829 0.656137 10.7302 0.740384C10.5508 1.13368 10.3097 1.49844 10.1397 1.89442C9.9847 1.8317 9.8393 1.73161 9.68311 1.66377C9.90265 1.29255 10.1389 0.902944 10.284 0.495453Z" fill="#D72B70"/>
<path d="M5.98151 0.593445L6.00905 0.594704C6.16044 0.710662 6.55176 1.50247 6.66069 1.71306C6.52101 1.79845 6.38689 1.88939 6.25311 1.98368C6.12801 1.88821 5.70341 1.03729 5.59448 0.833674C5.72911 0.765157 5.85497 0.675732 5.98151 0.593445Z" fill="#D72B70"/>
<path d="M2.22181 2.5131C2.49982 2.50143 2.95466 2.44207 3.21355 2.55861C3.28002 2.58851 3.32282 2.65047 3.3475 2.71681C3.40167 2.86266 3.38558 3.05587 3.31869 3.195C3.27808 3.2793 3.24017 3.31129 3.1518 3.33942C2.88491 3.37704 2.4609 3.42162 2.20875 3.3102C2.12384 3.27267 2.06318 3.18433 2.03361 3.09944C1.98163 2.95032 1.99208 2.77558 2.06596 2.63553C2.10395 2.56348 2.14616 2.53829 2.22181 2.5131Z" fill="#D72B70"/>
<path d="M12.7526 10.2521C13.0937 10.2631 13.4373 10.277 13.7778 10.2495C13.6667 10.8343 13.4994 11.3665 13.185 11.878C13.0344 12.1113 12.872 12.3382 12.7146 12.5671C12.8011 11.8142 12.7717 11.0097 12.7526 10.2521Z" fill="#D72B70"/>
<path d="M1.19743 2.91706C1.10846 3.05527 1.26356 3.48207 1.09288 3.72297C1.00619 3.84548 0.852022 3.93415 0.702571 3.95044C0.526498 3.96958 0.32153 3.94229 0.181682 3.82608C0.0606219 3.72549 0.0291977 3.50869 0.0201835 3.35906C0.00198651 3.05711 -0.047381 1.9899 0.132061 1.80349C0.247646 1.68333 0.458596 1.61943 0.621948 1.62212C0.780835 1.62464 0.946629 1.68107 1.05253 1.80341C1.24267 2.02323 1.18639 2.41401 1.17047 2.6822C1.16314 2.75257 1.1468 2.83595 1.18344 2.90127C1.1869 2.9074 1.19279 2.91177 1.19743 2.91706Z" fill="#D72B70"/>
<path d="M4.24536 2.6617C4.24865 2.65557 4.25269 2.64977 4.25522 2.64331C4.35235 2.39611 4.10518 1.92732 4.51933 1.70338C4.68933 1.61144 4.91907 1.60279 5.10045 1.66451C5.20803 1.70112 5.30458 1.76905 5.35614 1.87232C5.47501 2.11054 5.47484 3.38473 5.37846 3.63974C5.32926 3.77006 5.20828 3.85931 5.08217 3.90852C4.90281 3.97863 4.73162 3.98006 4.55715 3.89777C4.43761 3.84143 4.3489 3.7489 4.30517 3.62404C4.23298 3.41798 4.25286 3.1325 4.27653 2.91847C4.27443 2.82929 4.2644 2.74885 4.24536 2.6617Z" fill="#D72B70"/>
<path d="M11.0891 2.53484C12.682 2.40629 12.2277 4.13265 12.6978 4.39739C12.8012 4.45558 12.9122 4.41486 13.0181 4.38614C12.889 4.90976 12.6688 5.21153 12.2109 5.50021L11.9138 5.26284C11.7022 5.11091 11.4887 4.96159 11.2734 4.81488C11.1556 4.47993 11.1353 4.01165 10.8654 3.75286C10.7501 3.64236 10.6123 3.61138 10.4563 3.61835C10.2986 3.6254 10.222 3.68334 10.116 3.79451C10.0062 3.63472 9.89778 3.47544 9.79761 3.30927C10.1416 2.90589 10.5562 2.61075 11.0891 2.53484Z" fill="#D72B70"/>
<path d="M8.05855 3.14494C8.41457 3.1158 8.80008 3.22135 9.09089 3.42807C9.13369 3.45869 9.17488 3.49133 9.21448 3.52598C9.25407 3.56063 9.29184 3.59713 9.32779 3.63547C9.36379 3.67382 9.3978 3.71384 9.42981 3.75554C9.46182 3.79719 9.49173 3.84032 9.51953 3.88494C9.54728 3.92961 9.57278 3.97548 9.59603 4.02256C9.61928 4.06969 9.64014 4.11783 9.65862 4.16698C9.6771 4.21619 9.69311 4.26615 9.70664 4.31686C9.72023 4.36758 9.73127 4.41885 9.73975 4.47069C9.80967 4.89203 9.71481 5.34856 9.45938 5.69442C9.17935 6.07361 8.79359 6.25582 8.33707 6.32501C7.91626 6.34961 7.54432 6.28437 7.19925 6.02962C7.17819 6.01422 7.15749 5.9983 7.13716 5.98184C7.11688 5.96544 7.09703 5.94853 7.0776 5.93112C7.05817 5.91366 7.03918 5.89575 7.02065 5.87738C7.00211 5.85902 6.98406 5.84019 6.96648 5.82087C6.9489 5.80162 6.93183 5.78191 6.91526 5.76176C6.89863 5.74167 6.88257 5.72115 6.86707 5.70021C6.85151 5.67928 6.83649 5.65795 6.822 5.63623C6.80751 5.61457 6.79358 5.59254 6.78021 5.57015C6.76685 5.54776 6.75404 5.52503 6.7418 5.50197C6.72961 5.47896 6.71798 5.45565 6.70692 5.43202C6.69586 5.4084 6.68541 5.38453 6.67558 5.3604C6.66575 5.33627 6.65651 5.31192 6.64786 5.28735C6.63927 5.26272 6.6313 5.23792 6.62394 5.21295C6.61652 5.18793 6.60978 5.16277 6.60372 5.13747C6.5976 5.11211 6.59212 5.08664 6.58729 5.06106C6.58252 5.03542 6.57836 5.0097 6.57482 4.98389C6.51358 4.55457 6.6081 4.11862 6.8749 3.772C7.17271 3.38508 7.58324 3.20497 8.05855 3.14494Z" fill="#D72B70"/>
<path d="M2.53247 10.249C2.99135 10.3134 3.49261 10.275 3.95723 10.2744L6.53791 10.2736L10.0847 10.2747C10.7817 10.2756 11.4986 10.3091 12.1925 10.2504C12.1797 10.886 12.1955 11.5216 12.1982 12.1574C12.1994 12.4492 12.2353 12.8124 12.172 13.0938C12.0735 13.5319 10.0061 14.961 9.57049 15.2566C9.17041 15.5081 8.77092 15.7731 8.35652 16C8.36216 15.3431 8.35045 14.6857 8.36368 14.029C8.17244 14.0355 7.98028 14.0307 7.78887 14.0297C7.81507 14.6577 7.74608 15.3079 7.81271 15.9315C7.42931 15.6772 7.03445 15.4407 6.6524 15.1844C5.25848 14.2493 3.5836 12.9936 2.87636 11.417C2.70585 11.0368 2.63517 10.6476 2.53247 10.249Z" fill="#D72B70"/>
<path d="M1.99609 3.86774C2.46045 3.92819 2.91007 3.90964 3.3746 3.86639C3.3858 4.13072 3.40139 4.38153 3.50981 4.62713C3.65135 4.9478 3.91209 5.18862 4.23921 5.31491C4.90879 5.57335 5.40146 5.23698 5.99572 4.97895C6.0488 5.31045 6.17205 5.64674 6.35528 5.92887C6.37427 5.95798 6.39395 5.98658 6.41434 6.01468C6.43473 6.04284 6.45582 6.07047 6.47761 6.09756C6.49934 6.12471 6.52175 6.15127 6.54483 6.17724C6.56786 6.20327 6.59153 6.22872 6.61585 6.25357C6.64012 6.27842 6.665 6.30269 6.69049 6.32637C6.71599 6.34999 6.74205 6.373 6.76867 6.39539C6.7953 6.41778 6.82245 6.4395 6.85014 6.46055C6.87783 6.4816 6.90602 6.50194 6.93472 6.52159C6.96342 6.5413 6.99257 6.56027 7.02217 6.57852C7.05182 6.59677 7.0819 6.61429 7.11239 6.63108C7.14284 6.64788 7.1737 6.66392 7.20498 6.6792C7.23626 6.69448 7.26788 6.70901 7.29984 6.72278C7.33185 6.73649 7.36415 6.74945 7.39672 6.76165C7.42935 6.7738 7.46227 6.78516 7.49546 6.79574C7.52859 6.80632 7.56201 6.81606 7.59571 6.82496C7.62935 6.83392 7.66319 6.84204 7.69723 6.84931C7.73255 6.85687 7.76802 6.86353 7.80363 6.8693C7.83929 6.87512 7.87507 6.88005 7.91096 6.88408C7.94684 6.88811 7.98279 6.89124 8.01879 6.89348C8.05485 6.89578 8.09093 6.89715 8.12705 6.89759C8.16316 6.8981 8.19924 6.89771 8.2353 6.89642C8.27141 6.89508 8.30744 6.89286 8.34339 6.88979C8.37939 6.88671 8.41528 6.88276 8.45105 6.87795C8.48683 6.87308 8.52246 6.86734 8.55796 6.86073C8.59346 6.85413 8.62876 6.84666 8.66386 6.83831C8.69902 6.82997 8.73392 6.82076 8.76857 6.81069C8.80323 6.80061 8.83763 6.78967 8.87177 6.77786C8.90587 6.7661 8.93968 6.75351 8.97321 6.74007C9.00668 6.72664 9.03982 6.71239 9.07261 6.69733C9.10541 6.68228 9.13782 6.66641 9.16983 6.64973C9.20185 6.63304 9.23341 6.61558 9.26452 6.59733C9.29564 6.57914 9.32631 6.56016 9.35652 6.5404C9.91911 6.16641 10.1935 5.59527 10.3184 4.95041C10.5959 5.14823 10.94 5.27368 11.2298 5.46159C12.455 6.25634 13.1232 7.2956 13.5629 8.66417C13.6599 9.0065 13.7362 9.34044 13.7506 9.69688C13.3144 9.71644 12.8747 9.69839 12.4379 9.69696L10.4146 9.70007L2.5768 9.70435C2.65178 8.8028 2.94023 7.99387 3.39381 7.21415C3.51529 7.00532 3.63938 6.79096 3.78993 6.60136C3.43357 6.51882 3.07435 6.27179 2.81428 6.02199C2.21201 5.44337 2.01395 4.67768 1.99609 3.86774Z" fill="#D72B70"/>
</svg>
