<svg width="85" height="37" viewBox="0 0 85 37" fill="none" xmlns="http://www.w3.org/2000/svg">
<g clip-path="url(#clip0_9202_304)">
<path d="M3.4586 5.64901C3.67298 5.59744 3.88073 5.57061 4.09928 5.54907C4.10137 5.74423 4.13549 5.99116 4.03901 6.16516C3.85912 6.2498 3.71146 6.2105 3.51925 6.17744C3.50883 6.16553 3.49556 6.15571 3.48779 6.14192C3.40533 5.99494 3.44211 5.80733 3.4586 5.64901Z" fill="#D72B70"/>
<path d="M9.64209 5.58649C9.88832 5.58308 10.1313 5.59102 10.377 5.60292C10.4198 5.79902 10.4424 5.98001 10.4471 6.18065C10.1833 6.22581 9.91163 6.23204 9.64436 6.24848L9.64209 5.58649Z" fill="#D72B70"/>
<path d="M19.4053 -0.38466L19.4637 -0.385925C19.4847 -0.36435 19.5158 -0.349161 19.5272 -0.321237C19.5696 -0.217933 19.5717 2.18943 19.573 2.49341C19.2751 2.48774 18.9718 2.51098 18.6738 2.52213C18.6359 2.52137 18.5805 2.49926 18.5434 2.48887C18.3512 2.00107 18.4473 0.246331 18.4691 -0.359608L19.4053 -0.38466Z" fill="#D72B70"/>
<path d="M23.9644 0.728821C24.3023 0.906662 24.6369 1.09036 24.9682 1.27992C24.5647 2.16484 24.0222 2.98553 23.6397 3.8765C23.2909 3.73538 22.9637 3.51018 22.6123 3.35753C23.1063 2.52229 23.6378 1.64568 23.9644 0.728821Z" fill="#D72B70"/>
<path d="M14.2839 0.949341L14.3459 0.952175C14.6865 1.21308 15.567 2.99465 15.8121 3.46847C15.4978 3.66061 15.196 3.86521 14.895 4.07738C14.6135 3.86257 13.6582 1.948 13.4131 1.48986C13.716 1.33569 13.9992 1.13449 14.2839 0.949341Z" fill="#D72B70"/>
<path d="M5.82446 5.26853C6.44998 5.24227 7.47337 5.1087 8.05586 5.37093C8.20542 5.43819 8.30171 5.57762 8.35725 5.72687C8.47913 6.05503 8.44293 6.48975 8.29242 6.8028C8.20106 6.99248 8.11576 7.06446 7.91692 7.12775C7.31642 7.21238 6.3624 7.31271 5.79508 7.062C5.60401 6.97755 5.46753 6.7788 5.401 6.5878C5.28404 6.25227 5.30755 5.85911 5.47379 5.54399C5.55927 5.38189 5.65424 5.32521 5.82446 5.26853Z" fill="#D72B70"/>
<path d="M29.5186 22.6812C30.2861 22.706 31.0591 22.7373 31.8253 22.6754C31.5752 23.9912 31.199 25.1888 30.4916 26.3396C30.1526 26.8646 29.7872 27.3751 29.4331 27.8901C29.6278 26.196 29.5616 24.3859 29.5186 22.6812Z" fill="#D72B70"/>
<path d="M3.51941 6.17746C3.31924 6.48843 3.66821 7.44874 3.28417 7.99076C3.08912 8.26641 2.74224 8.46591 2.40598 8.50256C2.00982 8.54564 1.54864 8.48424 1.23398 8.22276C0.961595 7.99643 0.89089 7.50863 0.870608 7.17196C0.829665 6.49259 0.718588 4.09135 1.12233 3.67193C1.3824 3.40158 1.85704 3.25781 2.22458 3.26386C2.58207 3.26952 2.95511 3.39648 3.19338 3.67175C3.6212 4.16635 3.49458 5.04561 3.45875 5.64904C3.44226 5.80736 3.40549 5.99496 3.48794 6.14194C3.49571 6.15574 3.50898 6.16556 3.51941 6.17746Z" fill="#D72B70"/>
<path d="M10.377 5.6029C10.3843 5.58911 10.3934 5.57608 10.3991 5.56153C10.6177 5.00534 10.0615 3.95057 10.9934 3.4467C11.3759 3.23983 11.8928 3.22037 12.3009 3.35923C12.543 3.4416 12.7602 3.59444 12.8762 3.82682C13.1437 4.3628 13.1433 7.22974 12.9264 7.80351C12.8157 8.09672 12.5435 8.29754 12.2598 8.40826C11.8562 8.56601 11.471 8.56922 11.0785 8.38407C10.8095 8.25731 10.6099 8.04911 10.5115 7.76818C10.3491 7.30455 10.3938 6.66221 10.4471 6.18064C10.4423 5.98 10.4198 5.79901 10.377 5.6029Z" fill="#D72B70"/>
<path d="M25.7755 5.31748C29.3595 5.02824 28.3374 8.91254 29.3951 9.50822C29.6277 9.63915 29.8776 9.54752 30.1156 9.48291C29.8252 10.661 29.3297 11.34 28.2995 11.9896L27.6312 11.4555C27.155 11.1136 26.6747 10.7777 26.1902 10.4476C25.9252 9.69394 25.8795 8.6403 25.2722 8.05803C25.0127 7.80941 24.7026 7.73969 24.3517 7.75538C23.9969 7.77124 23.8244 7.9016 23.5859 8.15174C23.339 7.79222 23.095 7.43382 22.8696 7.05994C23.6436 6.15234 24.5764 5.48827 25.7755 5.31748Z" fill="#D72B70"/>
<path d="M18.9569 6.69018C19.7579 6.62462 20.6253 6.8621 21.2796 7.32723C21.3759 7.39613 21.4686 7.46956 21.5577 7.54752C21.6468 7.62548 21.7318 7.7076 21.8127 7.79388C21.8937 7.88015 21.9702 7.97021 22.0422 8.06404C22.1142 8.15775 22.1815 8.25479 22.2441 8.35518C22.3065 8.45568 22.3639 8.5589 22.4162 8.66482C22.4685 8.77087 22.5155 8.87919 22.557 8.98977C22.5986 9.10048 22.6346 9.2129 22.6651 9.32701C22.6957 9.44112 22.7205 9.55649 22.7396 9.67312C22.8969 10.6211 22.6835 11.6483 22.1087 12.4265C21.4787 13.2797 20.6107 13.6897 19.5835 13.8453C18.6367 13.9007 17.7998 13.7539 17.0234 13.1807C16.9761 13.1461 16.9295 13.1102 16.8837 13.0732C16.8381 13.0363 16.7935 12.9983 16.7497 12.9591C16.706 12.9198 16.6633 12.8795 16.6216 12.8382C16.5799 12.7969 16.5393 12.7545 16.4997 12.711C16.4602 12.6677 16.4217 12.6234 16.3845 12.578C16.3471 12.5328 16.3109 12.4867 16.276 12.4395C16.241 12.3924 16.2072 12.3445 16.1746 12.2956C16.142 12.2468 16.1107 12.1973 16.0806 12.1469C16.0505 12.0965 16.0217 12.0454 15.9942 11.9935C15.9668 11.9417 15.9406 11.8893 15.9157 11.8361C15.8908 11.783 15.8673 11.7293 15.8452 11.675C15.8231 11.6207 15.8023 11.5659 15.7828 11.5106C15.7635 11.4552 15.7455 11.3994 15.729 11.3432C15.7123 11.2869 15.6971 11.2303 15.6835 11.1734C15.6697 11.1163 15.6574 11.059 15.6465 11.0015C15.6358 10.9438 15.6264 10.8859 15.6185 10.8278C15.4807 9.86185 15.6934 8.88095 16.2937 8.10107C16.9637 7.2305 17.8874 6.82526 18.9569 6.69018Z" fill="#D72B70"/>
<path d="M6.52295 22.6742C7.55544 22.8191 8.68327 22.7328 9.72865 22.7314L15.5352 22.7295L23.5155 22.732C25.0837 22.7341 26.6968 22.8095 28.2581 22.6774C28.2293 24.1076 28.2647 25.5377 28.2708 26.9681C28.2735 27.6248 28.3542 28.4419 28.2119 29.0752C27.9903 30.0608 23.3387 33.2763 22.3585 33.9413C21.4583 34.5072 20.5595 35.1034 19.627 35.6141C19.6397 34.1361 19.6134 32.6568 19.6432 31.1792C19.2129 31.194 18.7805 31.1832 18.3499 31.1809C18.4088 32.5939 18.2536 34.0568 18.4035 35.4599C17.5408 34.8878 16.6524 34.3556 15.7928 33.779C12.6565 31.675 8.88799 28.8496 7.2967 25.3023C6.91305 24.4469 6.75401 23.5712 6.52295 22.6742Z" fill="#D72B70"/>
<path d="M5.31641 8.31644C6.36122 8.45247 7.37286 8.41071 8.41805 8.31342C8.44326 8.90815 8.47832 9.47247 8.72228 10.0251C9.04072 10.7466 9.62739 11.2884 10.3634 11.5726C11.87 12.1541 12.9785 11.3972 14.3156 10.8167C14.435 11.5626 14.7123 12.3192 15.1246 12.954C15.1673 13.0195 15.2116 13.0838 15.2575 13.1471C15.3033 13.2104 15.3508 13.2726 15.3998 13.3335C15.4487 13.3946 15.4991 13.4544 15.5511 13.5128C15.6029 13.5714 15.6561 13.6286 15.7109 13.6846C15.7655 13.7405 15.8214 13.7951 15.8788 13.8484C15.9362 13.9015 15.9948 13.9533 16.0547 14.0037C16.1146 14.054 16.1757 14.1029 16.238 14.1503C16.3003 14.1976 16.3637 14.2434 16.4283 14.2876C16.4929 14.3319 16.5585 14.3746 16.6251 14.4157C16.6918 14.4568 16.7595 14.4962 16.8281 14.534C16.8966 14.5718 16.966 14.6078 17.0364 14.6422C17.1068 14.6766 17.1779 14.7093 17.2498 14.7403C17.3219 14.7711 17.3945 14.8003 17.4678 14.8277C17.5412 14.8551 17.6153 14.8806 17.69 14.9045C17.7645 14.9283 17.8397 14.9502 17.9155 14.9702C17.9912 14.9903 18.0674 15.0086 18.144 15.025C18.2234 15.042 18.3032 15.057 18.3834 15.0699C18.4636 15.083 18.5441 15.0941 18.6248 15.1032C18.7056 15.1123 18.7865 15.1193 18.8675 15.1244C18.9486 15.1295 19.0298 15.1326 19.111 15.1336C19.1923 15.1348 19.2735 15.1339 19.3546 15.131C19.4359 15.1279 19.5169 15.123 19.5978 15.116C19.6788 15.1091 19.7596 15.1002 19.8401 15.0894C19.9206 15.0785 20.0007 15.0655 20.0806 15.0507C20.1605 15.0358 20.2399 15.019 20.3189 15.0002C20.398 14.9815 20.4765 14.9608 20.5545 14.9381C20.6325 14.9154 20.7099 14.8908 20.7867 14.8642C20.8634 14.8378 20.9395 14.8094 21.0149 14.7792C21.0902 14.749 21.1648 14.7169 21.2386 14.683C21.3124 14.6492 21.3853 14.6134 21.4573 14.5759C21.5294 14.5384 21.6004 14.4991 21.6704 14.458C21.7404 14.4171 21.8094 14.3744 21.8774 14.3299C23.1432 13.4885 23.7606 12.2034 24.0417 10.7524C24.6659 11.1975 25.4402 11.4798 26.0922 11.9026C28.8489 13.6908 30.3524 16.0291 31.3417 19.1084C31.5601 19.8787 31.7316 20.63 31.764 21.432C30.7825 21.476 29.7932 21.4354 28.8104 21.4322L24.2579 21.4392L6.62299 21.4488C6.79169 19.4203 7.44072 17.6002 8.46126 15.8459C8.7346 15.376 9.01381 14.8937 9.35254 14.4671C8.55073 14.2814 7.74248 13.7256 7.15734 13.1635C5.80223 11.8616 5.35659 10.1388 5.31641 8.31644Z" fill="#D72B70"/>
<path d="M39.6963 15.6141H37.7344V5.81134H44.5977V7.77325H39.6963V9.73517H42.6357V11.6971H39.6963V15.6141ZM47.5713 15.6141H45.6094V5.81134H47.5713V15.6141ZM53.5117 15.6141H51.5566V7.77325H48.6104V5.81134H56.4512V7.77325H53.5117V15.6141ZM39.6963 22.7733V26.6971H41.6582C41.9271 26.6971 42.18 26.647 42.417 26.5467C42.654 26.4419 42.8613 26.3006 43.0391 26.1229C43.2168 25.9451 43.3558 25.7378 43.4561 25.5008C43.5609 25.2593 43.6133 25.004 43.6133 24.7352C43.6133 24.4663 43.5609 24.2134 43.4561 23.9764C43.3558 23.7348 43.2168 23.5252 43.0391 23.3475C42.8613 23.1697 42.654 23.0307 42.417 22.9305C42.18 22.8257 41.9271 22.7733 41.6582 22.7733H39.6963ZM39.6963 30.6141H37.7344V20.8113H41.6582C42.0182 20.8113 42.3646 20.8592 42.6973 20.9549C43.0299 21.046 43.3398 21.1782 43.627 21.3514C43.9186 21.52 44.1829 21.7251 44.4199 21.9666C44.6615 22.2036 44.8665 22.4679 45.0352 22.7596C45.2083 23.0512 45.3405 23.3634 45.4316 23.6961C45.5273 24.0288 45.5752 24.3751 45.5752 24.7352C45.5752 25.2729 45.4727 25.7811 45.2676 26.2596C45.0625 26.7335 44.7822 27.1483 44.4268 27.5037C44.0713 27.8592 43.6543 28.1395 43.1758 28.3445C42.7018 28.5496 42.196 28.6522 41.6582 28.6522H39.6963V30.6141ZM52.5 26.6971V24.7352C52.5 24.4663 52.4476 24.2134 52.3428 23.9764C52.2425 23.7348 52.1035 23.5252 51.9258 23.3475C51.748 23.1697 51.5384 23.0307 51.2969 22.9305C51.0599 22.8257 50.807 22.7733 50.5381 22.7733C50.2692 22.7733 50.014 22.8257 49.7725 22.9305C49.5355 23.0307 49.3281 23.1697 49.1504 23.3475C48.9727 23.5252 48.8314 23.7348 48.7266 23.9764C48.6263 24.2134 48.5762 24.4663 48.5762 24.7352V26.6971H52.5ZM54.4619 30.6141H52.5V28.6522H48.5762V30.6141H46.6211V24.7352C46.6211 24.1929 46.7236 23.6847 46.9287 23.2108C47.1338 22.7322 47.4118 22.3152 47.7627 21.9598C48.1182 21.6043 48.5329 21.324 49.0068 21.119C49.4854 20.9139 49.9958 20.8113 50.5381 20.8113C51.0804 20.8113 51.5885 20.9139 52.0625 21.119C52.541 21.324 52.958 21.6043 53.3135 21.9598C53.6689 22.3152 53.9492 22.7322 54.1543 23.2108C54.3594 23.6847 54.4619 24.1929 54.4619 24.7352V30.6141ZM58.126 22.7733V26.6971H60.0879C60.3568 26.6971 60.6097 26.647 60.8467 26.5467C61.0837 26.4419 61.291 26.3006 61.4688 26.1229C61.6465 25.9451 61.7855 25.7378 61.8857 25.5008C61.9906 25.2593 62.043 25.004 62.043 24.7352C62.043 24.4663 61.9906 24.2134 61.8857 23.9764C61.7855 23.7348 61.6465 23.5252 61.4688 23.3475C61.291 23.1697 61.0837 23.0307 60.8467 22.9305C60.6097 22.8257 60.3568 22.7733 60.0879 22.7733H58.126ZM58.126 30.6141H56.1641V20.8113H60.0879C60.4479 20.8113 60.7943 20.8592 61.127 20.9549C61.4596 21.046 61.7695 21.1782 62.0566 21.3514C62.3483 21.52 62.6126 21.7251 62.8496 21.9666C63.0911 22.2036 63.2962 22.4679 63.4648 22.7596C63.638 23.0512 63.7702 23.3634 63.8613 23.6961C63.957 24.0288 64.0049 24.3751 64.0049 24.7352C64.0049 25.0724 63.9616 25.4005 63.875 25.7195C63.793 26.0386 63.6722 26.3416 63.5127 26.6287C63.3577 26.9158 63.1663 27.1802 62.9385 27.4217C62.7106 27.6632 62.4554 27.8729 62.1729 28.0506L63.2598 30.6141H61.1748L60.3203 28.6385L58.126 28.6522V30.6141ZM69.2344 30.6141H67.2793V22.7733H64.333V20.8113H72.1738V22.7733H69.2344V30.6141ZM77.6221 30.6141H75.667V27.5447C75.234 27.4354 74.8353 27.2599 74.4707 27.0184C74.1107 26.7768 73.8008 26.4897 73.541 26.157C73.2812 25.8198 73.0785 25.4484 72.9326 25.0428C72.7913 24.6326 72.7207 24.202 72.7207 23.7508V20.8113H74.6826V23.7508C74.6826 24.0197 74.7327 24.2749 74.833 24.5164C74.9378 24.7534 75.0791 24.9608 75.2568 25.1385C75.4346 25.3162 75.6419 25.4575 75.8789 25.5623C76.1204 25.6626 76.3757 25.7127 76.6445 25.7127C76.9134 25.7127 77.1663 25.6626 77.4033 25.5623C77.6449 25.4575 77.8545 25.3162 78.0322 25.1385C78.21 24.9608 78.349 24.7534 78.4492 24.5164C78.554 24.2749 78.6064 24.0197 78.6064 23.7508V20.8113H80.5615V23.7508C80.5615 24.202 80.4886 24.6326 80.3428 25.0428C80.2015 25.4484 80.001 25.8198 79.7412 26.157C79.4814 26.4897 79.1715 26.7768 78.8115 27.0184C78.4515 27.2599 78.055 27.4354 77.6221 27.5447V30.6141ZM83.6719 28.1942H82.1475L81.7305 20.8113H84.0957L83.6719 28.1942ZM84.082 29.9168C84.082 30.0809 84.0501 30.2358 83.9863 30.3817C83.9271 30.5229 83.8451 30.646 83.7402 30.7508C83.6354 30.8556 83.5124 30.9376 83.3711 30.9969C83.2298 31.0607 83.0794 31.0926 82.9199 31.0926C82.7559 31.0926 82.6032 31.0607 82.4619 30.9969C82.3206 30.9376 82.1953 30.8556 82.0859 30.7508C81.9811 30.646 81.8968 30.5229 81.833 30.3817C81.7738 30.2358 81.7441 30.0809 81.7441 29.9168C81.7441 29.7573 81.7738 29.6069 81.833 29.4656C81.8968 29.3244 81.9811 29.2013 82.0859 29.0965C82.1953 28.9917 82.3206 28.9096 82.4619 28.8504C82.6032 28.7866 82.7559 28.7547 82.9199 28.7547C83.0794 28.7547 83.2298 28.7866 83.3711 28.8504C83.5124 28.9096 83.6354 28.9917 83.7402 29.0965C83.8451 29.2013 83.9271 29.3244 83.9863 29.4656C84.0501 29.6069 84.082 29.7573 84.082 29.9168Z" fill="#D72B70"/>
</g>
<defs>
<clipPath id="clip0_9202_304">
<rect width="84" height="36" fill="white" transform="translate(0.325195 0.114075)"/>
</clipPath>
</defs>
</svg>
